<svg width="66" height="65" viewBox="0 0 66 65" fill="none" xmlns="http://www.w3.org/2000/svg">
<g clip-path="url(#clip0_0_1)">
<path d="M56 0H10C4.47715 0 0 4.47715 0 10V55C0 60.5228 4.47715 65 10 65H56C61.5228 65 66 60.5228 66 55V10C66 4.47715 61.5228 0 56 0Z" fill="#F6F8FF"/>
<path d="M41.5638 23.9054C43.6278 23.447 46.3162 21.3984 46.7253 20.3894C46.9653 19.7989 45.7687 18.876 45.4488 18.5038C44.7167 17.6549 45.012 17.2365 45.295 16.2245C45.618 15.0741 44.852 13.8037 43.7662 13.3054C42.6804 12.807 41.3823 12.9639 40.2903 13.4499C39.1983 13.9359 38.2663 14.7172 37.3527 15.4863C36.6852 15.0648 35.6209 13.2038 33.8983 14.4127C32.7079 15.2463 32.6002 17.0612 32.754 18.51C33.1139 21.8536 33.9383 23.5885 35.4917 24.0561C37.4542 24.6467 39.6259 24.336 41.5638 23.9054Z" fill="#577CFF"/>
<path d="M44.9176 14.2871C44.6561 18.7935 40.2605 21.7834 38.175 23.0999L39.5284 24.2627C39.5284 24.2627 40.3866 24.2811 41.5617 23.9059C43.5765 23.266 46.5202 21.4573 46.7232 20.39C47.0216 18.8366 45.4282 19.1749 45.0683 17.9476C44.8807 17.2985 45.9819 16.0712 44.9176 14.2871ZM37.3567 15.4898C37.3567 15.4898 36.5723 14.687 35.991 14.3209C35.7018 14.8654 35.4957 15.456 35.3942 16.0651C35.2127 17.1355 35.3942 18.6551 35.8218 19.7871C35.8895 19.9624 36.1417 19.9347 36.1694 19.7501C36.5385 17.317 37.3567 15.4898 37.3567 15.4898Z" fill="#1064E2"/>
<path d="M31.8726 23.5092C31.8726 23.5092 22.2784 24.5458 17.9504 32.8757C13.6225 41.2056 17.3014 46.2564 21.1957 48.0959C25.0899 49.9354 34.9024 50.5844 41.2852 49.071C47.668 47.5576 49.2644 44.42 48.9661 41.3902C48.5323 36.9668 44.4228 34.2476 44.4228 34.2476C44.4228 34.2476 44.5858 28.7846 40.347 25.2379C36.585 22.0881 31.8726 23.5092 31.8726 23.5092Z" fill="#577CFF"/>
<g filter="url(#filter0_d_0_1)">
<path d="M36.8359 32C37.0301 32 37.1875 31.8321 37.1875 31.625V30.375C37.1875 30.1679 37.0301 30 36.8359 30H28.1641C27.9699 30 27.8125 30.1679 27.8125 30.375V31.7734C27.8125 31.9805 27.9699 32.1484 28.1641 32.1484H30.6625C31.4625 32.1484 32.0764 32.4596 32.4487 33H28.1641C27.9699 33 27.8125 33.1679 27.8125 33.375V34.625C27.8125 34.8321 27.9699 35 28.1641 35H32.8151C32.633 36.1277 31.8495 36.8323 30.625 36.8323H28.1641C27.9699 36.8323 27.8125 37.0002 27.8125 37.2072V38.8639C27.8125 38.9685 27.8535 39.0684 27.9256 39.1394L32.7611 43.9006C32.8261 43.9645 32.9112 44 32.9996 44H35.4184C35.7384 44 35.892 43.581 35.6568 43.3494L31.2365 38.9971C33.4776 38.9239 35.0786 37.3285 35.2887 35H36.8359C37.0301 35 37.1875 34.8321 37.1875 34.625V33.375C37.1875 33.1679 37.0301 33 36.8359 33H35.1165C35.0144 32.6393 34.8739 32.3048 34.699 32H36.8359Z" fill="white"/>
</g>
<path d="M37.9365 21.6009C40.5327 22.4468 41.1079 24.7938 40.9203 25.4336C40.6957 26.1842 37.8196 23.2619 33.5439 23.4373C32.049 23.4988 32.4827 22.5821 33.1748 22.0531C34.0884 21.3548 35.6233 20.8503 37.9365 21.6009Z" fill="#6D4C41"/>
<path d="M37.9365 21.6009C40.5327 22.4468 41.1079 24.7938 40.9203 25.4336C40.6957 26.1842 37.8196 23.2619 33.5439 23.4373C32.049 23.4988 32.4827 22.5821 33.1748 22.0531C34.0884 21.3548 35.6233 20.8503 37.9365 21.6009Z" fill="#F7DECE"/>
<path d="M42.4961 29.8764C42.8222 29.6518 43.9173 30.0394 44.2249 32.1834C44.3756 33.2323 44.4217 34.2474 44.4217 34.2474C44.4217 34.2474 43.1298 33.0878 42.7022 32.2726C42.1639 31.2422 41.9548 30.2455 42.4961 29.8764Z" fill="#1064E2"/>
</g>
<defs>
<filter id="filter0_d_0_1" x="21" y="29" width="23" height="24" filterUnits="userSpaceOnUse" color-interpolation-filters="sRGB">
<feFlood flood-opacity="0" result="BackgroundImageFix"/>
<feColorMatrix in="SourceAlpha" type="matrix" values="0 0 0 0 0 0 0 0 0 0 0 0 0 0 0 0 0 0 127 0" result="hardAlpha"/>
<feOffset dy="4"/>
<feGaussianBlur stdDeviation="2"/>
<feComposite in2="hardAlpha" operator="out"/>
<feColorMatrix type="matrix" values="0 0 0 0 0 0 0 0 0 0 0 0 0 0 0 0 0 0 0.25 0"/>
<feBlend mode="normal" in2="BackgroundImageFix" result="effect1_dropShadow_0_1"/>
<feBlend mode="normal" in="SourceGraphic" in2="effect1_dropShadow_0_1" result="shape"/>
</filter>
<clipPath id="clip0_0_1">
<rect width="66" height="65" fill="white"/>
</clipPath>
</defs>
</svg>
